<?xml version="1.0" standalone="no"?>
<!DOCTYPE svg PUBLIC "-//W3C//DTD SVG 20010904//EN"
 "http://www.w3.org/TR/2001/REC-SVG-20010904/DTD/svg10.dtd">
<svg version="1.0" xmlns="http://www.w3.org/2000/svg"
 width="512.000000pt" height="512.000000pt" viewBox="0 0 512.000000 512.000000"
 preserveAspectRatio="xMidYMid meet">
<metadata>
Created by potrace 1.14, written by Peter Selinger 2001-2017
</metadata>
<g transform="translate(0.000000,512.000000) scale(0.100000,-0.100000)"
fill="#000000" stroke="none">
<path d="M605 5106 c-287 -60 -515 -279 -584 -563 -19 -76 -19 -138 -18 -1998
2 -1056 6 -1933 10 -1948 79 -290 258 -482 532 -570 l70 -22 1920 -2 c1872 -2
1922 -2 2002 17 71 17 208 72 223 89 3 4 23 18 45 32 93 61 176 161 239 285
77 154 70 -38 72 2109 2 1620 0 1930 -12 1985 -53 246 -228 455 -453 543 -79
30 -87 33 -166 47 -28 5 -863 9 -1935 8 -1464 0 -1898 -3 -1945 -12z m1340
-824 c64 -50 80 -122 44 -193 -34 -68 -71 -79 -282 -79 -205 0 -236 -9 -274
-77 -21 -37 -22 -48 -25 -493 -4 -429 -5 -459 -26 -533 -32 -116 -100 -246
-166 -315 -19 -20 -27 -36 -20 -40 43 -29 137 -191 172 -297 34 -102 35 -118
39 -575 4 -410 6 -448 23 -488 32 -71 68 -82 282 -82 97 0 187 -4 200 -9 72
-29 111 -109 89 -183 -7 -24 -23 -51 -35 -62 -46 -41 -78 -46 -273 -46 -198 0
-245 7 -338 51 -62 28 -162 128 -194 193 -49 99 -51 123 -51 581 -1 482 -4
504 -72 626 -34 59 -70 98 -170 184 -73 62 -75 158 -6 222 114 105 159 156
187 212 58 113 61 144 61 606 0 450 3 485 53 585 49 100 189 207 300 230 23 5
134 8 247 7 199 -2 207 -3 235 -25z m1729 13 c86 -26 139 -58 202 -121 37 -37
74 -85 86 -112 45 -104 47 -124 48 -571 0 -467 4 -505 61 -611 38 -73 79 -122
142 -171 68 -54 87 -81 93 -132 4 -33 0 -55 -15 -86 -12 -22 -26 -41 -31 -41
-5 0 -43 -33 -84 -73 -83 -81 -137 -177 -156 -274 -5 -29 -10 -247 -10 -485
-1 -403 -3 -437 -21 -491 -50 -148 -163 -257 -309 -300 -61 -18 -430 -24 -471
-8 -72 29 -112 109 -90 183 14 46 24 58 72 87 31 19 50 21 213 21 162 0 184 2
223 21 83 40 82 32 86 545 2 247 7 465 11 484 25 118 96 267 167 353 l40 47
-40 48 c-72 86 -136 221 -168 357 -4 17 -9 237 -12 490 -7 516 -4 495 -82 536
-34 17 -60 19 -218 19 -188 0 -210 4 -251 42 -53 48 -63 113 -30 178 37 73 64
80 298 79 135 -1 218 -6 246 -14z"/>
</g>
</svg>
